<svg version="1.1" id="Layer_2" xmlns="http://www.w3.org/2000/svg" xmlns:xlink="http://www.w3.org/1999/xlink" x="0px" y="0px" style="enable-background:new 0 0 150 60;" xml:space="preserve" viewBox="2.75 2.88 54.77 54.22">
<style type="text/css">
	.st0{fill:url(#SVGID_1_);}
	.st1{fill:url(#SVGID_2_);}
	.st2{fill:url(#SVGID_3_);}
	.st3{fill:url(#SVGID_4_);}
	.st4{fill:#0073BB;}
</style><style class="darkreader darkreader--sync" media="screen"/>
<g>
	<g>
		<linearGradient id="SVGID_1_" gradientUnits="userSpaceOnUse" x1="30.1668" y1="4.1564" x2="30.1668" y2="38.4895">
			<stop offset="0.1648" style="stop-color: rgb(255, 255, 255); --darkreader-inline-stopcolor: #e8e6e3;" data-darkreader-inline-stopcolor=""/>
			<stop offset="0.2041" style="stop-color: rgb(244, 247, 252); --darkreader-inline-stopcolor: #cfe1f2;" data-darkreader-inline-stopcolor=""/>
			<stop offset="0.2736" style="stop-color: rgb(214, 227, 243); --darkreader-inline-stopcolor: #bbd5eb;" data-darkreader-inline-stopcolor=""/>
			<stop offset="0.3647" style="stop-color: rgb(165, 195, 228); --darkreader-inline-stopcolor: #99c0e0;" data-darkreader-inline-stopcolor=""/>
			<stop offset="0.45" style="stop-color: rgb(114, 160, 213); --darkreader-inline-stopcolor: #75a9d6;" data-darkreader-inline-stopcolor=""/>
			<stop offset="0.5147" style="stop-color: rgb(84, 149, 204); --darkreader-inline-stopcolor: #609fd0;" data-darkreader-inline-stopcolor=""/>
			<stop offset="0.5969" style="stop-color: rgb(54, 138, 196); --darkreader-inline-stopcolor: #4e9ace;" data-darkreader-inline-stopcolor=""/>
			<stop offset="0.6835" style="stop-color: rgb(30, 130, 189); --darkreader-inline-stopcolor: #4face3;" data-darkreader-inline-stopcolor=""/>
			<stop offset="0.7751" style="stop-color: rgb(13, 124, 184); --darkreader-inline-stopcolor: #4fb9f3;" data-darkreader-inline-stopcolor=""/>
			<stop offset="0.8753" style="stop-color: rgb(3, 120, 181); --darkreader-inline-stopcolor: #4ec0fc;" data-darkreader-inline-stopcolor=""/>
			<stop offset="1" style="stop-color: rgb(0, 119, 180); --darkreader-inline-stopcolor: #4ec3ff;" data-darkreader-inline-stopcolor=""/>
		</linearGradient>
		<path class="st0" d="M29.4,38.5L47.8,32l6.1,0.8c0-0.5,2.1,1.1,2.1,0.6C55.2,17.1,44,4.2,30.1,4.2C16.5,4.2,5.4,16.7,4.4,32.6    c0,0.7,3.5-0.6,4.9-0.8L29.4,38.5z"/>
		<linearGradient id="SVGID_2_" gradientUnits="userSpaceOnUse" x1="4.3859" y1="35.8173" x2="55.9485" y2="35.8173">
			<stop offset="0" style="stop-color: rgb(0, 89, 153); --darkreader-inline-stopcolor: #70c3ff;" data-darkreader-inline-stopcolor=""/>
			<stop offset="3.732567e-02" style="stop-color: rgb(6, 93, 157); --darkreader-inline-stopcolor: #70c0fa;" data-darkreader-inline-stopcolor=""/>
			<stop offset="8.616590e-02" style="stop-color: rgb(22, 105, 167); --darkreader-inline-stopcolor: #6eb7ec;" data-darkreader-inline-stopcolor=""/>
			<stop offset="0.1414" style="stop-color: rgb(49, 124, 185); --darkreader-inline-stopcolor: #68a7d7;" data-darkreader-inline-stopcolor=""/>
			<stop offset="0.2" style="stop-color: rgb(86, 151, 209); --darkreader-inline-stopcolor: #61a1d4;" data-darkreader-inline-stopcolor=""/>
			<stop offset="0.2064" style="stop-color: rgb(88, 153, 210); --darkreader-inline-stopcolor: #62a3d5;" data-darkreader-inline-stopcolor=""/>
			<stop offset="0.2985" style="stop-color: rgb(119, 182, 227); --darkreader-inline-stopcolor: #76b5e3;" data-darkreader-inline-stopcolor=""/>
			<stop offset="0.35" style="stop-color: rgb(131, 193, 233); --darkreader-inline-stopcolor: #7dbee8;" data-darkreader-inline-stopcolor=""/>
			<stop offset="0.5" style="stop-color: rgb(203, 235, 251); --darkreader-inline-stopcolor: #abdff9;" data-darkreader-inline-stopcolor=""/>
			<stop offset="0.5349" style="stop-color: rgb(192, 228, 248); --darkreader-inline-stopcolor: #a5d8f5;" data-darkreader-inline-stopcolor=""/>
			<stop offset="0.5966" style="stop-color: rgb(162, 211, 241); --darkreader-inline-stopcolor: #92cbef;" data-darkreader-inline-stopcolor=""/>
			<stop offset="0.65" style="stop-color: rgb(131, 193, 233); --darkreader-inline-stopcolor: #7dbee8;" data-darkreader-inline-stopcolor=""/>
			<stop offset="0.8" style="stop-color: rgb(86, 151, 209); --darkreader-inline-stopcolor: #61a1d4;" data-darkreader-inline-stopcolor=""/>
			<stop offset="0.8586" style="stop-color: rgb(49, 124, 185); --darkreader-inline-stopcolor: #68a7d7;" data-darkreader-inline-stopcolor=""/>
			<stop offset="0.9138" style="stop-color: rgb(22, 105, 167); --darkreader-inline-stopcolor: #6eb7ec;" data-darkreader-inline-stopcolor=""/>
			<stop offset="0.9627" style="stop-color: rgb(6, 93, 157); --darkreader-inline-stopcolor: #70c0fa;" data-darkreader-inline-stopcolor=""/>
			<stop offset="1" style="stop-color: rgb(0, 89, 153); --darkreader-inline-stopcolor: #70c3ff;" data-darkreader-inline-stopcolor=""/>
		</linearGradient>
		<path class="st1" d="M40.2,33.9c-5.9,2.5-8.8,2.7-9.7,2.7l-0.7,0c-0.9,0-3.6-0.2-9.1-2.5l-1.2-0.5c-1.7-0.8-6.4-2.8-9.5-2.8    l-0.9,0c-0.7,0-2.8,0.1-4.7,1.2l0,4.4c0,0,2.8-2.8,10.6-0.3l0.5,0.2l0.4,0.2c1.6,0.8,9.4,4.4,14.1,4.5h0.6    c4.6-0.2,12-3.5,13.9-4.4l0.8-0.3c8-2.6,10.8,0.2,10.8,0.2l0-4.4c-1.9-1.1-3.8-1.2-4.6-1.2l-0.9,0C46.5,30.7,40.2,33.9,40.2,33.9"/>
		<linearGradient id="SVGID_3_" gradientUnits="userSpaceOnUse" x1="4.3834" y1="42.4033" x2="55.951" y2="42.4033">
			<stop offset="0" style="stop-color: rgb(0, 89, 153); --darkreader-inline-stopcolor: #70c3ff;" data-darkreader-inline-stopcolor=""/>
			<stop offset="3.732567e-02" style="stop-color: rgb(6, 93, 157); --darkreader-inline-stopcolor: #70c0fa;" data-darkreader-inline-stopcolor=""/>
			<stop offset="8.616590e-02" style="stop-color: rgb(22, 105, 167); --darkreader-inline-stopcolor: #6eb7ec;" data-darkreader-inline-stopcolor=""/>
			<stop offset="0.1414" style="stop-color: rgb(49, 124, 185); --darkreader-inline-stopcolor: #68a7d7;" data-darkreader-inline-stopcolor=""/>
			<stop offset="0.2" style="stop-color: rgb(86, 151, 209); --darkreader-inline-stopcolor: #61a1d4;" data-darkreader-inline-stopcolor=""/>
			<stop offset="0.2064" style="stop-color: rgb(88, 153, 210); --darkreader-inline-stopcolor: #62a3d5;" data-darkreader-inline-stopcolor=""/>
			<stop offset="0.2985" style="stop-color: rgb(119, 182, 227); --darkreader-inline-stopcolor: #76b5e3;" data-darkreader-inline-stopcolor=""/>
			<stop offset="0.35" style="stop-color: rgb(131, 193, 233); --darkreader-inline-stopcolor: #7dbee8;" data-darkreader-inline-stopcolor=""/>
			<stop offset="0.5" style="stop-color: rgb(203, 235, 251); --darkreader-inline-stopcolor: #abdff9;" data-darkreader-inline-stopcolor=""/>
			<stop offset="0.5349" style="stop-color: rgb(192, 228, 248); --darkreader-inline-stopcolor: #a5d8f5;" data-darkreader-inline-stopcolor=""/>
			<stop offset="0.5966" style="stop-color: rgb(162, 211, 241); --darkreader-inline-stopcolor: #92cbef;" data-darkreader-inline-stopcolor=""/>
			<stop offset="0.65" style="stop-color: rgb(131, 193, 233); --darkreader-inline-stopcolor: #7dbee8;" data-darkreader-inline-stopcolor=""/>
			<stop offset="0.8" style="stop-color: rgb(86, 151, 209); --darkreader-inline-stopcolor: #61a1d4;" data-darkreader-inline-stopcolor=""/>
			<stop offset="0.8586" style="stop-color: rgb(49, 124, 185); --darkreader-inline-stopcolor: #68a7d7;" data-darkreader-inline-stopcolor=""/>
			<stop offset="0.9138" style="stop-color: rgb(22, 105, 167); --darkreader-inline-stopcolor: #6eb7ec;" data-darkreader-inline-stopcolor=""/>
			<stop offset="0.9627" style="stop-color: rgb(6, 93, 157); --darkreader-inline-stopcolor: #70c0fa;" data-darkreader-inline-stopcolor=""/>
			<stop offset="1" style="stop-color: rgb(0, 89, 153); --darkreader-inline-stopcolor: #70c3ff;" data-darkreader-inline-stopcolor=""/>
		</linearGradient>
		<path class="st2" d="M30.2,48.8c1.8,0,3.9-0.7,3.9-0.7c1.5-0.4,6.1-3.2,6.1-3.2c1.3-1,6.1-3.4,6.1-3.4c2.5-1.3,5.3-1.3,5.3-1.3    c2.9,0,4.4,1.4,4.4,1.4l0-4.2c-2.6-1.8-6.3-1.2-6.3-1.2c-2.1,0.4-5.4,2.1-5.4,2.1l-5.7,3.4c-4.7,2.6-7.1,3-8,3h-0.9    c-0.9,0-3.4-0.4-8-3L16,38.2c0,0-3.2-1.7-5.4-2.1c0,0-3.7-0.7-6.3,1.2l0,4.2c0,0,1.5-1.4,4.4-1.4c0,0,2.8,0,5.3,1.3    c0,0,2.2,1.1,4,2.1l2.1,1.3c0,0,0,0,0.1,0c0.6,0.3,4.7,2.9,6.1,3.2C26.3,48.1,28.4,48.8,30.2,48.8"/>
		<linearGradient id="SVGID_4_" gradientUnits="userSpaceOnUse" x1="4.3848" y1="48.9733" x2="55.951" y2="48.9733">
			<stop offset="0" style="stop-color: rgb(0, 89, 153); --darkreader-inline-stopcolor: #70c3ff;" data-darkreader-inline-stopcolor=""/>
			<stop offset="3.732567e-02" style="stop-color: rgb(6, 93, 157); --darkreader-inline-stopcolor: #70c0fa;" data-darkreader-inline-stopcolor=""/>
			<stop offset="8.616590e-02" style="stop-color: rgb(22, 105, 167); --darkreader-inline-stopcolor: #6eb7ec;" data-darkreader-inline-stopcolor=""/>
			<stop offset="0.1414" style="stop-color: rgb(49, 124, 185); --darkreader-inline-stopcolor: #68a7d7;" data-darkreader-inline-stopcolor=""/>
			<stop offset="0.2" style="stop-color: rgb(86, 151, 209); --darkreader-inline-stopcolor: #61a1d4;" data-darkreader-inline-stopcolor=""/>
			<stop offset="0.2064" style="stop-color: rgb(88, 153, 210); --darkreader-inline-stopcolor: #62a3d5;" data-darkreader-inline-stopcolor=""/>
			<stop offset="0.2985" style="stop-color: rgb(119, 182, 227); --darkreader-inline-stopcolor: #76b5e3;" data-darkreader-inline-stopcolor=""/>
			<stop offset="0.35" style="stop-color: rgb(131, 193, 233); --darkreader-inline-stopcolor: #7dbee8;" data-darkreader-inline-stopcolor=""/>
			<stop offset="0.5" style="stop-color: rgb(203, 235, 251); --darkreader-inline-stopcolor: #abdff9;" data-darkreader-inline-stopcolor=""/>
			<stop offset="0.5349" style="stop-color: rgb(192, 228, 248); --darkreader-inline-stopcolor: #a5d8f5;" data-darkreader-inline-stopcolor=""/>
			<stop offset="0.5966" style="stop-color: rgb(162, 211, 241); --darkreader-inline-stopcolor: #92cbef;" data-darkreader-inline-stopcolor=""/>
			<stop offset="0.65" style="stop-color: rgb(131, 193, 233); --darkreader-inline-stopcolor: #7dbee8;" data-darkreader-inline-stopcolor=""/>
			<stop offset="0.8" style="stop-color: rgb(86, 151, 209); --darkreader-inline-stopcolor: #61a1d4;" data-darkreader-inline-stopcolor=""/>
			<stop offset="0.8586" style="stop-color: rgb(49, 124, 185); --darkreader-inline-stopcolor: #68a7d7;" data-darkreader-inline-stopcolor=""/>
			<stop offset="0.9138" style="stop-color: rgb(22, 105, 167); --darkreader-inline-stopcolor: #6eb7ec;" data-darkreader-inline-stopcolor=""/>
			<stop offset="0.9627" style="stop-color: rgb(6, 93, 157); --darkreader-inline-stopcolor: #70c0fa;" data-darkreader-inline-stopcolor=""/>
			<stop offset="1" style="stop-color: rgb(0, 89, 153); --darkreader-inline-stopcolor: #70c3ff;" data-darkreader-inline-stopcolor=""/>
		</linearGradient>
		<path class="st3" d="M8.5,41c0.4,0,2.3,0.3,4.3,1.2c0,0,2.9,1.6,4.1,2.8c0,0,8.6,7.9,12.9,7.9h0.9c3.4,0,9.7-5.1,12-7.1l1.2-1    l1-0.8c0.9-0.6,1.9-1.2,2.4-1.5l0.6-0.3c1.9-0.8,3.6-1,4-1.1l0.3,0c2.1,0.1,3.8,1.5,3.8,1.5l0,4.3c0,0-1.6-1.4-4.1-1.4    c0,0-1.8-0.1-4.5,1.3l-1,0.6c-1,0.7-2.8,2-3.6,2.6c0,0-7.6,6.9-11.6,7.1l-0.6,0l-0.7,0l-0.7,0c-3.9-0.2-11.6-7.1-11.6-7.1    c-0.9-0.8-3.4-2.5-4.1-2.9l-0.4-0.3c-2.7-1.4-4.6-1.3-4.6-1.3c-2.5,0-4.1,1.4-4.1,1.4l0-4.3c0,0,1.7-1.4,3.8-1.5L8.5,41z"/>
	</g>
	<g>
		<path class="st4" d="M9.4,22.9c0.1,0,0.2,0,0.2,0.1c0.1,0,0.1,0,0.2,0.1c0,0,0.1,0,0.1,0.1c0,0,0.1,0.1,0.1,0.1    c0,0,0.1,0.1,0.1,0.3c0,0.1,0.1,0.3,0.1,0.5c0,0.2,0,0.4,0,0.6c0,0.2-0.1,0.5-0.1,0.7c-0.1,0.5-0.3,0.9-0.6,1.2    c-0.2,0.3-0.6,0.6-0.9,0.8c-0.4,0.2-0.8,0.3-1.3,0.3c-0.5,0-1,0-1.6-0.2c-0.6-0.2-1.1-0.4-1.5-0.6c-0.4-0.3-0.7-0.6-1-1    c-0.2-0.4-0.4-0.8-0.4-1.2c-0.1-0.4,0-0.9,0.1-1.4C2.9,23.1,3,22.9,3,22.7c0.1-0.2,0.2-0.3,0.3-0.5c0.1-0.1,0.2-0.3,0.3-0.4    c0.1-0.1,0.2-0.2,0.2-0.2c0.1,0,0.1-0.1,0.1-0.1c0,0,0.1,0,0.1,0c0.1,0,0.1,0,0.2,0c0.1,0,0.2,0,0.3,0.1c0.1,0,0.2,0.1,0.3,0.1    c0.1,0,0.1,0.1,0.2,0.1c0,0,0.1,0.1,0.1,0.1c0,0,0,0.1,0,0.1c0,0.1-0.1,0.1-0.1,0.2c-0.1,0.1-0.2,0.2-0.3,0.3    c-0.1,0.1-0.2,0.2-0.3,0.4c-0.1,0.2-0.2,0.4-0.3,0.6C4,23.8,4,24,4,24.3c0.1,0.2,0.2,0.5,0.3,0.7c0.2,0.2,0.4,0.4,0.7,0.5    c0.3,0.2,0.6,0.3,1,0.4C6.4,26,6.8,26,7.1,26c0.3,0,0.6-0.1,0.8-0.2c0.2-0.1,0.4-0.3,0.6-0.4c0.2-0.2,0.3-0.4,0.3-0.7    c0.1-0.2,0.1-0.5,0.1-0.7c0-0.2,0-0.4-0.1-0.5c0-0.1-0.1-0.3-0.1-0.4c0-0.1,0-0.2,0-0.2c0,0,0-0.1,0-0.1c0,0,0.1,0,0.1,0    c0,0,0.1,0,0.2,0C9.1,22.9,9.2,22.9,9.4,22.9z"/>
		<path class="st4" d="M8.9,15.7c0.3,0.2,0.6,0.4,0.8,0.7c0.2,0.3,0.3,0.6,0.4,0.9c0.1,0.3,0.1,0.7,0,1c-0.1,0.4-0.2,0.7-0.5,1.1    L9.4,20l2,1.2c0,0,0.1,0,0.1,0.1c0,0,0,0.1,0,0.1c0,0.1,0,0.1-0.1,0.2c0,0.1-0.1,0.2-0.2,0.3C11.1,22,11,22.1,11,22.2    c-0.1,0.1-0.1,0.1-0.2,0.2c0,0-0.1,0.1-0.1,0.1c0,0-0.1,0-0.1,0L5,19.1c-0.1-0.1-0.2-0.2-0.3-0.3c0-0.1,0-0.2,0.1-0.4L5.7,17    c0.1-0.1,0.2-0.3,0.3-0.4c0.1-0.1,0.2-0.3,0.3-0.4c0.1-0.2,0.3-0.3,0.5-0.4c0.2-0.1,0.4-0.2,0.7-0.3c0.2,0,0.5,0,0.7,0    C8.4,15.5,8.7,15.6,8.9,15.7z M8.3,17.1C8,17,7.8,16.9,7.7,16.9c-0.2,0-0.3,0-0.5,0.1c-0.1,0.1-0.2,0.2-0.3,0.3    c-0.1,0.1-0.2,0.2-0.2,0.4l-0.3,0.5l2.1,1.2l0.3-0.6c0.1-0.2,0.2-0.4,0.2-0.6c0-0.2,0-0.3,0-0.5c0-0.1-0.1-0.3-0.2-0.4    C8.6,17.3,8.4,17.2,8.3,17.1z"/>
		<path class="st4" d="M15.6,12.8c0.2,0.2,0.4,0.5,0.5,0.7c0.1,0.3,0.2,0.6,0.1,0.8c0,0.3-0.1,0.6-0.3,0.9c-0.2,0.3-0.4,0.7-0.8,1.1    l-1.3,1.3c-0.1,0.1-0.2,0.1-0.3,0.2c-0.1,0-0.2,0-0.3-0.2l-4.4-4.4c-0.1-0.1-0.2-0.2-0.2-0.3c0-0.1,0.1-0.2,0.1-0.3l2.9-2.9    c0,0,0.1,0,0.1,0c0,0,0.1,0,0.1,0c0,0,0.1,0,0.2,0.1c0.1,0,0.1,0.1,0.2,0.2c0.1,0.1,0.1,0.1,0.2,0.2c0,0.1,0.1,0.1,0.1,0.2    c0,0,0,0.1,0,0.1c0,0,0,0.1,0,0.1l-2.1,2.1l1.3,1.3l0.8-0.8c0.3-0.3,0.6-0.6,0.9-0.7c0.3-0.1,0.5-0.2,0.8-0.3c0.3,0,0.5,0,0.8,0.1    C15.1,12.4,15.3,12.6,15.6,12.8z M14.6,13.9c-0.1-0.1-0.2-0.2-0.4-0.2c-0.1-0.1-0.3-0.1-0.4-0.1c-0.1,0-0.3,0-0.4,0.1    c-0.1,0.1-0.3,0.2-0.5,0.4l-0.7,0.7l1.5,1.5l0.7-0.7c0.2-0.2,0.3-0.3,0.4-0.5c0.1-0.1,0.1-0.3,0.1-0.4c0-0.1,0-0.3-0.1-0.4    C14.8,14.1,14.7,14,14.6,13.9z"/>
		<path class="st4" d="M22.4,11.2c0,0,0,0.1,0,0.1c0,0,0,0.1-0.1,0.1c0,0-0.1,0.1-0.2,0.1c-0.1,0.1-0.2,0.1-0.3,0.2    c-0.1,0.1-0.2,0.1-0.3,0.2c-0.1,0-0.2,0.1-0.2,0.1c-0.1,0-0.1,0-0.1,0c0,0-0.1,0-0.1-0.1l-1.8-3.3c-0.1-0.1-0.1-0.2-0.2-0.4    C19,8.1,19,8,18.9,7.9l0,0c0,0.1,0,0.1,0,0.2c0,0.1,0,0.2,0,0.3c0,0.1,0,0.2,0,0.3c0,0.1,0,0.2,0,0.3l-0.4,4.5c0,0,0,0.1,0,0.1    c0,0,0,0.1-0.1,0.1c0,0-0.1,0.1-0.1,0.1c-0.1,0-0.1,0.1-0.2,0.1c-0.1,0.1-0.2,0.1-0.3,0.2c-0.1,0-0.1,0.1-0.2,0.1    c-0.1,0-0.1,0-0.1,0c0,0-0.1,0-0.1-0.1L14,8.1c0,0,0-0.1,0-0.1c0,0,0-0.1,0.1-0.1c0,0,0.1-0.1,0.2-0.1c0.1-0.1,0.2-0.1,0.3-0.2    c0.1-0.1,0.2-0.1,0.3-0.2c0.1,0,0.2-0.1,0.2-0.1c0.1,0,0.1,0,0.1,0c0,0,0.1,0,0.1,0.1l1.8,3.3c0.1,0.1,0.1,0.2,0.2,0.3    c0.1,0.1,0.1,0.2,0.2,0.3l0,0c0-0.1,0-0.3,0-0.5c0-0.2,0-0.4,0-0.5l0.4-4.5c0,0,0-0.1,0-0.1c0,0,0-0.1,0.1-0.1    c0,0,0.1-0.1,0.1-0.1c0.1,0,0.1-0.1,0.2-0.1c0.1-0.1,0.2-0.1,0.3-0.2c0.1,0,0.1-0.1,0.2-0.1c0.1,0,0.1,0,0.1,0c0,0,0.1,0,0.1,0.1    L22.4,11.2z"/>
		<path class="st4" d="M25.7,8.6c0.1,0.3,0.1,0.6,0.1,0.9c0,0.3,0,0.5-0.1,0.7c-0.1,0.2-0.3,0.4-0.5,0.5c-0.2,0.1-0.5,0.3-0.8,0.3    c-0.1,0-0.2,0-0.3,0.1c-0.1,0-0.2,0-0.3,0c-0.1,0-0.2,0-0.2,0c-0.1,0-0.1,0-0.1,0c0,0-0.1,0-0.1-0.1c0,0,0-0.1-0.1-0.1    c0,0,0-0.1-0.1-0.1c0-0.1,0-0.1-0.1-0.2c0-0.1-0.1-0.2-0.1-0.3c0-0.1,0-0.2,0-0.2c0-0.1,0-0.1,0-0.1c0,0,0,0,0.1-0.1    c0,0,0.1,0,0.1,0c0,0,0.1,0,0.2,0c0.1,0,0.1,0,0.2,0c0.1,0,0.2,0,0.3,0c0.1,0,0.2-0.1,0.2-0.1c0.1,0,0.1-0.1,0.1-0.2    c0-0.1,0-0.2,0-0.3c0-0.1,0-0.3-0.1-0.4l-1.1-4.8c0,0,0-0.1,0-0.1c0,0,0-0.1,0.1-0.1c0,0,0.1-0.1,0.2-0.1c0.1,0,0.2-0.1,0.3-0.1    c0.1,0,0.3-0.1,0.3-0.1c0.1,0,0.2,0,0.2,0c0.1,0,0.1,0,0.1,0c0,0,0.1,0,0.1,0.1L25.7,8.6z"/>
		<path class="st4" d="M33.6,9.7c0,0.1,0.1,0.2,0.1,0.3c0,0.1,0,0.1,0,0.2c0,0-0.1,0.1-0.2,0.1c-0.1,0-0.2,0-0.4,0    c-0.2,0-0.3,0-0.4,0c-0.1,0-0.2,0-0.2,0c-0.1,0-0.1,0-0.1-0.1c0,0,0-0.1-0.1-0.1l-0.5-1.4L29,8.5l-0.5,1.4c0,0.1,0,0.1-0.1,0.1    c0,0-0.1,0.1-0.1,0.1c-0.1,0-0.1,0-0.2,0c-0.1,0-0.2,0-0.4,0c-0.2,0-0.3,0-0.4,0c-0.1,0-0.2,0-0.2-0.1c0,0,0-0.1,0-0.2    c0-0.1,0-0.2,0.1-0.3l2.3-6.3c0-0.1,0-0.1,0.1-0.2c0,0,0.1-0.1,0.1-0.1c0.1,0,0.2,0,0.3,0c0.1,0,0.3,0,0.5,0c0.2,0,0.4,0,0.5,0    c0.1,0,0.2,0,0.3,0c0.1,0,0.1,0.1,0.2,0.1c0,0,0.1,0.1,0.1,0.2L33.6,9.7z M30.4,4.4L30.4,4.4l-1.1,3l2,0L30.4,4.4z"/>
		<path class="st4" d="M40.2,10.3c-0.1,0.2-0.2,0.4-0.3,0.6c-0.1,0.2-0.3,0.3-0.5,0.4c-0.2,0.1-0.4,0.2-0.6,0.2    c-0.2,0.1-0.4,0.1-0.6,0.1c-0.2,0-0.4,0-0.7-0.1c-0.2,0-0.5-0.1-0.8-0.2L35,10.7c-0.1,0-0.2-0.1-0.3-0.2c-0.1-0.1-0.1-0.2,0-0.4    l2-5.9C36.8,4.1,36.9,4,37,4c0.1,0,0.2,0,0.3,0l1.7,0.6c0.4,0.1,0.8,0.3,1,0.5c0.3,0.2,0.5,0.4,0.6,0.6C40.8,5.8,40.9,6,41,6.3    c0,0.3,0,0.5-0.1,0.8c-0.1,0.2-0.1,0.3-0.2,0.4c-0.1,0.1-0.2,0.2-0.3,0.3C40.2,8,40,8,39.9,8.1c-0.1,0-0.3,0.1-0.5,0.1    c0.2,0.1,0.3,0.2,0.5,0.4C40,8.7,40.1,8.8,40.2,9c0.1,0.2,0.1,0.4,0.1,0.6C40.3,9.8,40.3,10,40.2,10.3z M38.8,9.8    c0.1-0.2,0.1-0.3,0.1-0.4c0-0.1-0.1-0.3-0.1-0.4c-0.1-0.1-0.2-0.2-0.3-0.3c-0.1-0.1-0.3-0.2-0.6-0.3L37,8.1L36.3,10l1,0.3    c0.2,0.1,0.4,0.1,0.5,0.1c0.1,0,0.3,0,0.4-0.1c0.1,0,0.2-0.1,0.3-0.2C38.6,10.1,38.7,10,38.8,9.8z M39.4,6.8    c0-0.1,0.1-0.3,0.1-0.4c0-0.1,0-0.2-0.1-0.3c-0.1-0.1-0.1-0.2-0.3-0.3c-0.1-0.1-0.3-0.2-0.5-0.2l-0.7-0.2l-0.6,1.8l0.8,0.3    c0.2,0.1,0.4,0.1,0.5,0.1c0.1,0,0.3,0,0.4-0.1c0.1-0.1,0.2-0.1,0.3-0.2C39.3,7,39.4,6.9,39.4,6.8z"/>
		<path class="st4" d="M47.4,13.5c-0.4,0.5-0.7,0.9-1.1,1.1c-0.4,0.3-0.8,0.5-1.2,0.6c-0.4,0.1-0.9,0.1-1.3-0.1    c-0.4-0.1-0.9-0.3-1.3-0.7c-0.4-0.3-0.8-0.7-1-1.1c-0.2-0.4-0.4-0.8-0.4-1.2c0-0.4,0-0.8,0.2-1.3c0.2-0.5,0.4-0.9,0.8-1.4    c0.4-0.5,0.7-0.8,1.1-1.1c0.4-0.3,0.8-0.5,1.2-0.6c0.4-0.1,0.9-0.1,1.3,0.1C46,8,46.5,8.2,47,8.6c0.4,0.3,0.8,0.7,1,1    c0.2,0.4,0.4,0.8,0.4,1.2c0,0.4,0,0.8-0.2,1.3C48.1,12.5,47.8,13,47.4,13.5z M46.2,12.6c0.2-0.3,0.4-0.6,0.5-0.9    c0.1-0.3,0.2-0.6,0.2-0.8c0-0.3,0-0.5-0.1-0.8c-0.1-0.2-0.3-0.5-0.6-0.7c-0.3-0.2-0.6-0.3-0.8-0.4c-0.3,0-0.5,0-0.8,0.1    c-0.3,0.1-0.5,0.2-0.7,0.4c-0.2,0.2-0.4,0.4-0.6,0.7c-0.2,0.3-0.4,0.6-0.6,0.9c-0.1,0.3-0.2,0.6-0.2,0.8c0,0.3,0,0.5,0.1,0.7    c0.1,0.2,0.3,0.5,0.6,0.7c0.3,0.2,0.6,0.3,0.8,0.4c0.3,0,0.5,0,0.8-0.1c0.3-0.1,0.5-0.2,0.7-0.5C45.7,13.1,46,12.9,46.2,12.6z"/>
		<path class="st4" d="M48,23.4C47.9,23.4,47.9,23.4,48,23.4c-0.1,0-0.2,0-0.2,0c0,0-0.1-0.1-0.1-0.1c-0.1-0.1-0.1-0.1-0.2-0.3    c-0.1-0.1-0.1-0.2-0.2-0.3c0-0.1-0.1-0.1-0.1-0.2c0,0,0-0.1,0-0.1c0,0,0-0.1,0.1-0.1l1.4-0.9l-2.7-4l-1.4,0.9c0,0-0.1,0-0.1,0    c0,0-0.1,0-0.1-0.1c0,0-0.1-0.1-0.1-0.1c-0.1-0.1-0.1-0.1-0.2-0.3c-0.1-0.1-0.1-0.2-0.2-0.3c0-0.1-0.1-0.1-0.1-0.2    c0,0,0-0.1,0-0.1c0,0,0-0.1,0.1-0.1l2.1-1.4c0.1-0.1,0.2-0.1,0.2-0.1c0.1,0,0.1,0.1,0.2,0.1l0.2,0.3c0.2,0,0.3,0,0.5,0    c0.2,0,0.3,0,0.5-0.1c0.2,0,0.4-0.1,0.7-0.2c0.2-0.1,0.5-0.2,0.9-0.3c0.3-0.1,0.7-0.3,1.2-0.5c0.5-0.2,1-0.5,1.6-0.8    c0.2-0.1,0.3-0.1,0.4-0.1c0.1,0,0.2,0.1,0.3,0.2l2,3c0.1,0.1,0.1,0.2,0.1,0.3c0,0.1-0.1,0.2-0.2,0.3l-4.6,3.1l0.3,0.5    c0.1,0.1,0.1,0.2,0.1,0.2c0,0.1-0.1,0.1-0.2,0.2L48,23.4z M53,17.2l-0.9-1.4c-0.5,0.3-0.9,0.5-1.3,0.7c-0.4,0.2-0.7,0.3-1,0.5    c-0.3,0.1-0.6,0.2-0.8,0.3c-0.2,0.1-0.4,0.1-0.6,0.2c-0.2,0-0.3,0.1-0.5,0.1c-0.1,0-0.3,0-0.4,0l1.6,2.4L53,17.2z"/>
		<path class="st4" d="M51.3,27.6c-0.1,0-0.2,0-0.3,0.1c-0.1,0-0.1,0-0.2,0c0,0-0.1,0-0.1,0c0,0,0,0-0.1-0.1l-1-3.5    c0-0.1,0-0.2,0-0.3c0-0.1,0.1-0.2,0.3-0.2l6-1.7c0.2,0,0.3,0,0.4,0c0.1,0.1,0.2,0.2,0.2,0.3l1,3.4c0,0,0,0.1,0,0.1    c0,0,0,0.1-0.1,0.1c0,0-0.1,0.1-0.2,0.1c-0.1,0-0.2,0.1-0.3,0.1c-0.1,0-0.2,0-0.3,0.1c-0.1,0-0.1,0-0.2,0c0,0-0.1,0-0.1,0    c0,0,0,0-0.1-0.1l-0.7-2.5l-1.7,0.5l0.6,2.1c0,0,0,0.1,0,0.1c0,0,0,0.1-0.1,0.1c0,0-0.1,0.1-0.2,0.1c-0.1,0-0.2,0.1-0.3,0.1    c-0.1,0-0.2,0-0.3,0.1c-0.1,0-0.1,0-0.2,0c0,0-0.1,0-0.1,0c0,0,0,0-0.1-0.1l-0.6-2.1l-1.9,0.5l0.7,2.5c0,0,0,0.1,0,0.1    c0,0,0,0.1-0.1,0.1c0,0-0.1,0.1-0.2,0.1C51.5,27.5,51.4,27.5,51.3,27.6z"/>
	</g>
</g>
</svg>